<svg width="1209" height="496" viewBox="0 0 1209 496" fill="none" xmlns="http://www.w3.org/2000/svg">
<path d="M667.079 151.35C713.443 151.35 739.201 180.543 739.201 242.362V449H670.513V252.093C670.513 224.045 662.499 211.453 641.32 211.453C619.569 211.453 606.976 225.19 606.976 260.679V449H537.715V48.3176H606.976V182.26C619.569 162.226 640.748 151.35 667.079 151.35ZM756.593 119.296V47.7452H825.853V119.296H756.593ZM756.593 449V157.074H825.853V449H756.593Z" fill="#F3F3F3"/>
<rect x="0.640625" width="496" height="496" rx="64.4156" fill="#F3F3F3"/>
<path d="M121.688 329.734L241.938 329.734L404.529 191.582C432.201 159.346 403.356 161.841 391.826 159.922L259.232 159.922L90.859 303.831C67.0039 327.65 82.8453 328.554 97.0616 328.819C105.25 328.972 113.498 329.734 121.688 329.734Z" fill="#333333"/>
<path d="M121.797 330.678L242.046 330.678C255.468 319.165 280.205 297.291 274.825 301.896C269.444 306.501 166.142 315.327 116.82 319.165C70.7 323.962 90.8773 305.734 90.8773 303.815C69.243 325.985 83.6971 328.296 97.2036 329.303C105.37 329.912 113.607 330.678 121.797 330.678Z" fill="#1E1E1E"/>
<path d="M373.594 164.701H253.344C239.922 176.214 214.424 198.088 219.805 193.483C225.185 188.878 329.248 180.051 378.571 176.214C424.69 171.417 404.513 189.645 404.513 191.564C426.147 169.394 411.693 167.083 398.187 166.076C390.02 165.467 381.783 164.701 373.594 164.701Z" fill="#1E1E1E"/>
<path d="M352.728 47.667L62.9845 47.667C46.074 142.071 121.275 166.632 160.989 166.632L253.228 166.632L398.629 166.632C402.511 166.632 406.533 167.223 409.607 169.594C416.41 174.842 414.154 181.423 404.521 191.576L419.558 176.355C430.042 165.742 433.425 150.015 428.233 136.029L410.291 87.6985C401.357 63.6344 378.397 47.667 352.728 47.667Z" fill="#FFC94A"/>
<path d="M90.8369 303.848C81.1703 314.036 78.933 320.628 85.8232 325.885C88.8639 328.204 92.8153 328.805 96.6396 328.829L242.131 329.751H374.81C375.824 329.751 376.832 329.777 377.833 329.829C346.7 331.271 321.887 357.851 321.887 389.605C321.887 421.535 346.975 447.552 378.35 448.691C377.811 448.707 377.271 448.716 376.729 448.716H142.757C117.025 448.716 94.0228 432.671 85.1348 408.523L67.0352 359.348C61.8956 345.384 65.2903 329.707 75.7471 319.122L90.8369 303.848Z" fill="#FFC94A"/>
<path d="M430.291 388.675C430.291 411.484 411.69 429.974 388.743 429.974C365.797 429.974 347.195 411.484 347.195 388.675C347.195 365.866 365.797 346.878 388.743 346.878C411.69 346.878 430.291 365.866 430.291 388.675Z" fill="#333333"/>
<path d="M971.356 44C980.515 44 986.239 45.1448 990.818 47.4344V113.833C985.666 112.688 979.37 112.688 973.646 112.688C935.295 112.688 915.261 136.729 915.261 182.522V341.65H846V49.724H906.102L907.247 104.102C916.406 63.4617 937.585 44 971.356 44Z" fill="#F3F3F3"/>
<path d="M1107.02 44C1172.85 44 1208.91 80.0614 1208.91 145.315V211.714H1073.82V252.927C1073.82 276.968 1085.27 288.416 1108.16 288.416C1131.06 288.416 1142.51 277.541 1142.51 251.782V246.058H1208.91V248.92C1208.91 310.168 1172.27 347.374 1107.02 347.374C1040.62 347.374 1004.56 310.74 1004.56 246.058V145.315C1004.56 80.0614 1040.62 44 1107.02 44ZM1073.82 160.198H1141.36V137.302C1141.36 113.261 1129.34 102.385 1107.59 102.385C1085.84 102.385 1073.82 113.261 1073.82 137.302V160.198Z" fill="#F3F3F3"/>
</svg>
